<?xml version="1.0" encoding="UTF-8"?>
<svg version="1.1" xmlns="http://www.w3.org/2000/svg" width="1052" height="591">
<path d="M0 0 C1.87862553 -0.00378874 3.75724825 -0.00929333 5.63586426 -0.01637268 C10.71015561 -0.03027024 15.78410572 -0.01919852 20.85837793 -0.00266147 C26.18194466 0.01124476 31.50549269 0.00472278 36.82907104 0.00120544 C45.76468368 -0.00149181 54.70016161 0.01193881 63.63574219 0.03515625 C73.95312031 0.06177916 84.27027354 0.06350606 94.58767426 0.05176789 C104.53332072 0.04097464 114.47888617 0.04718828 124.42452621 0.06132317 C128.64839477 0.06706789 132.87220375 0.06701225 137.09607315 0.06225777 C142.07188729 0.05747196 147.04745632 0.067656 152.02322388 0.08921242 C153.8448593 0.09475803 155.66651838 0.09526613 157.48815536 0.09025955 C170.77298351 0.05833654 181.27404959 0.74339122 191.26904297 10.50170898 C197.9097854 18.49589797 200.57481887 25.20782862 200.53646851 35.51472473 C200.54099962 36.41188271 200.54553073 37.30904068 200.55019915 38.23338526 C200.56284078 41.23409333 200.56122292 44.23461984 200.55957031 47.23535156 C200.5655557 49.38909641 200.57236127 51.5428391 200.57992554 53.69657898 C200.59759158 59.54376041 200.60228118 65.39088331 200.60355711 71.23808885 C200.60497892 74.8922545 200.60924908 78.54640528 200.61455154 82.20056725 C200.63305379 94.95175496 200.64122191 107.70290087 200.63964844 120.45410156 C200.63844697 132.33519029 200.6595499 144.21609737 200.69113576 156.09714013 C200.71729753 166.30199691 200.72801577 176.50679435 200.72673762 186.71168441 C200.72622796 192.80466357 200.7319135 198.89748129 200.75309372 204.99042702 C200.77247425 210.72211362 200.77260158 216.45348476 200.75806046 222.18518257 C200.75597105 224.28579927 200.76068103 226.3864357 200.77278137 228.48701859 C200.78826107 231.36096208 200.7789075 234.23382148 200.76351929 237.10774231 C200.77380641 237.93344264 200.78409354 238.75914298 200.7946924 239.60986453 C200.68668454 248.77609967 196.5550055 256.90979252 190.26904297 263.50170898 C182.89796451 269.4469949 175.70060341 272.96855293 166.16752625 272.88938904 C164.98694986 272.89746734 164.98694986 272.89746734 163.78252345 272.90570885 C161.16027384 272.91995098 158.53853172 272.91289404 155.91625977 272.90576172 C154.02999467 272.91146733 152.14373302 272.91843233 150.25747681 272.92655945 C145.14369673 272.94448701 140.03008829 272.94332293 134.91628623 272.93761706 C130.64210046 272.93452394 126.3679476 272.94061921 122.09376651 272.94665581 C112.00641214 272.96069877 101.91914246 272.95914227 91.83178711 272.94775391 C81.43836537 272.936279 71.04520187 272.9503384 60.65181416 272.97715038 C51.71738964 272.99933251 42.78304602 273.00593891 33.84859592 273.00007397 C28.51740099 272.99670848 23.18637149 272.99909214 17.85519981 273.016325 C12.83918274 273.03183152 7.82354692 273.0277974 2.80754471 273.00901985 C0.97181202 273.00534392 -0.86394915 273.00841327 -2.69965553 273.01890564 C-15.49430883 273.08642404 -25.50054309 271.94466028 -35.68798828 263.56030273 C-42.34657761 256.8507873 -45.9316267 248.4487784 -46.00310594 239.06344098 C-45.99932661 238.23883038 -45.99554729 237.41421977 -45.99165344 236.56462097 C-45.99547899 235.6756301 -45.99930454 234.78663923 -46.00324601 233.87070924 C-46.01354868 230.89763239 -46.00958902 227.92474965 -46.00561523 224.95166016 C-46.00996326 222.81762005 -46.01514671 220.68358151 -46.02110291 218.54954529 C-46.03449548 212.75607504 -46.03507119 206.96267002 -46.03253961 201.16918731 C-46.03146991 196.33079513 -46.03635332 191.49241615 -46.04114503 186.65402681 C-46.05224146 175.23727736 -46.05267707 163.82056082 -46.04663086 152.40380859 C-46.04059227 140.63181223 -46.05289892 128.85993543 -46.07420093 117.08795947 C-46.09182435 106.97652112 -46.09781705 96.86512079 -46.09456319 86.75366765 C-46.09275112 80.71661174 -46.09537884 74.67964109 -46.10927773 68.64259911 C-46.12186314 62.9634806 -46.11990505 57.2845482 -46.10686684 51.60543251 C-46.10450295 49.52417055 -46.107229 47.44289547 -46.11548996 45.36164856 C-46.12597505 42.51413354 -46.11784244 39.66724097 -46.10517883 36.81974792 C-46.11255312 36.00182949 -46.1199274 35.18391105 -46.12752515 34.34120721 C-46.01788217 22.5713824 -41.02171919 14.91271573 -32.98095703 6.68920898 C-22.59643454 -0.30037346 -12.02894285 -0.06939226 0 0 Z " fill="#18C6E3" transform="translate(116.73095703125,159.498291015625)"/>
<path d="M0 0 C6.60491368 4.09217478 10.52787965 9.94061892 12.4375 17.4375 C12.8700927 21.97663053 12.84754017 26.49403776 12.82568359 31.05102539 C12.82975517 32.41701679 12.83510033 33.78300488 12.84161377 35.14898682 C12.8552327 38.84163415 12.85000892 42.53402857 12.84047651 46.22668004 C12.83284085 50.11006517 12.83993731 53.99342974 12.84463501 57.8768158 C12.8500858 64.4041631 12.84292354 70.93140844 12.82861328 77.45874023 C12.81233596 84.96928067 12.81754205 92.4795761 12.8340925 99.99011046 C12.84778423 106.46605757 12.84958835 112.94193164 12.84177649 119.41788858 C12.83713572 123.27311511 12.83637358 127.12822727 12.84638596 130.98344612 C12.85516429 134.61728765 12.84883969 138.25081961 12.83170319 141.8846283 C12.82595333 143.82708836 12.83466374 145.76957515 12.84408569 147.71202087 C12.66562279 172.93159143 2.97328773 194.27017959 -14.1875 212.5 C-30.74306393 228.67409932 -53.51677533 236.70855657 -76.44848633 236.75439453 C-101.45097528 236.3247347 -122.08368778 226.0405983 -140.03515625 209.1171875 C-157.48332937 190.61726979 -163.63031344 167.60120505 -162.9375 142.73046875 C-162.23387829 128.03137138 -157.7619797 116.14825704 -150.5625 103.4375 C-150.01722656 102.43976563 -149.47195313 101.44203125 -148.91015625 100.4140625 C-137.64207941 81.18394604 -117.87556916 68.84872185 -96.71875 63.1640625 C-89.39373881 61.47785943 -82.42754941 61.22150703 -74.9375 61.1875 C-73.82503906 61.166875 -72.71257812 61.14625 -71.56640625 61.125 C-61.5005855 61.07812773 -51.83185831 62.19141668 -43.375 68.0625 C-42.47394531 68.67351562 -41.57289063 69.28453125 -40.64453125 69.9140625 C-38.5625 71.4375 -38.5625 71.4375 -37.5625 72.4375 C-37.55703156 71.41511986 -37.55703156 71.41511986 -37.55145264 70.37208557 C-37.50949921 63.24975018 -37.44006317 56.12805148 -37.35498047 49.00610352 C-37.324652 46.35135189 -37.30558861 43.69720245 -37.29150391 41.04223633 C-37.26999103 37.21652996 -37.223294 33.39181359 -37.171875 29.56640625 C-37.17064636 28.38792618 -37.16941772 27.20944611 -37.16815186 25.99525452 C-37.02648714 17.945363 -35.87966779 11.38776543 -30.59765625 5.09765625 C-29.62119141 4.30681641 -29.62119141 4.30681641 -28.625 3.5 C-27.97660156 2.95472656 -27.32820312 2.40945312 -26.66015625 1.84765625 C-19.44661592 -3.00166974 -7.9694403 -3.59860386 0 0 Z M-107.1875 127.4453125 C-112.41268787 135.12758276 -114.73427726 144.22306972 -113.5625 153.4375 C-111.11722486 165.37277154 -105.54654107 174.38613622 -95.5625 181.4375 C-87.44673956 186.48693617 -77.9808102 188.90454233 -68.5546875 186.75 C-56.77664912 183.47073177 -47.86008492 177.94674577 -41.3125 167.4296875 C-35.8977536 157.27703801 -35.48702493 147.48499639 -38.4609375 136.46484375 C-42.21600814 126.14505741 -50.26172606 118.26270775 -60 113.5 C-77.87396996 106.69840081 -95.37105378 112.84518423 -107.1875 127.4453125 Z " fill="#18C5E1" transform="translate(971.5625,177.5625)"/>
<path d="M0 0 C1.00691895 -0.01401855 2.01383789 -0.02803711 3.05126953 -0.04248047 C13.82046456 0.02715949 21.77212025 2.79639756 29.5625 10.375 C36.94162678 19.5136266 37.44657127 30.0611259 36.5625 41.375 C34.62359691 50.23358119 29.18875223 57.13816516 21.75 62.1875 C13.98991751 66.55896424 6.30990218 67.57080103 -2.4375 68.3125 C-9.7324316 68.94126984 -15.90309327 69.86873297 -22.4375 73.375 C-23.17613281 73.72304687 -23.91476562 74.07109375 -24.67578125 74.4296875 C-38.97158986 81.58993706 -49.01711616 94.69607328 -54.21565247 109.60696411 C-56.91369069 118.82983646 -56.86382677 127.85417498 -56.84819031 137.37613297 C-56.84366105 140.37929294 -56.85785369 143.38187944 -56.87658691 146.38497925 C-56.91931834 153.83666188 -56.9305977 161.28832869 -56.94281006 168.7401123 C-56.95437913 175.05778187 -56.97804424 181.37518644 -57.01750183 187.69274521 C-57.03097967 190.6362735 -57.02691955 193.57943321 -57.02209473 196.52297974 C-57.05786744 209.02579275 -57.33617659 219.85998007 -66.4375 229.375 C-75.50188932 237.61092363 -83.13772036 238.95517914 -95.0078125 238.68359375 C-104.32802151 238.21111365 -111.20576723 234.21741482 -117.4375 227.375 C-123.16525039 219.84002048 -124.73762733 212.90959073 -124.7121582 203.58447266 C-124.71726913 202.61443298 -124.72238007 201.64439331 -124.72764587 200.6449585 C-124.74152499 197.44293002 -124.74058499 194.24111747 -124.73828125 191.0390625 C-124.74217179 188.79910198 -124.7465072 186.55914219 -124.75126648 184.31918335 C-124.75872709 179.62015395 -124.75844051 174.92119965 -124.75317383 170.22216797 C-124.7474084 164.23988221 -124.76423998 158.25790902 -124.7875185 152.27567482 C-124.80235815 147.6444218 -124.80311322 143.01324204 -124.80000877 138.38196945 C-124.80051782 136.17906454 -124.8056761 133.97615508 -124.81582069 131.77327347 C-124.95070881 98.35840562 -115.18434549 65.08994231 -91.4375 40.375 C-90.7775 40.375 -90.1175 40.375 -89.4375 40.375 C-89.08945312 39.53001953 -89.08945312 39.53001953 -88.734375 38.66796875 C-78.10883322 19.88124277 -47.88902512 8.79382749 -28.4375 3.375 C-18.91917757 0.81683018 -9.81332606 0.09411471 0 0 Z " fill="#18C5E2" transform="translate(470.4375,175.625)"/>
<path d="M0 0 C0.96639404 -0.01780518 1.93278809 -0.03561035 2.9284668 -0.05395508 C14.00956823 -0.04166061 22.28631214 2.62161646 30.375 10.3125 C37.03504648 18.19939714 37.96643554 27.69202286 37.71484375 37.6953125 C36.83472123 47.06305331 32.53544595 54.25099164 25.375 60.3125 C17.33858656 65.27402114 10.6068347 67.27728386 1.25 67.6875 C-15.10885375 68.65259477 -28.09242699 74.65547477 -39.625 86.3125 C-40.17671875 86.83070313 -40.7284375 87.34890625 -41.296875 87.8828125 C-45.07306602 91.76051403 -47.42692046 96.41181945 -49.875 101.1875 C-50.2167627 101.84758057 -50.55852539 102.50766113 -50.91064453 103.18774414 C-54.80584657 111.10527116 -55.92376073 118.86542421 -55.89624023 127.62084961 C-55.90408035 128.94471931 -55.90408035 128.94471931 -55.91207886 130.29533386 C-55.92225348 132.19568562 -55.92808774 134.09606473 -55.92996025 135.99644279 C-55.93365133 139.01188287 -55.95045192 142.02700204 -55.97071838 145.04237366 C-56.02587278 153.61013811 -56.05678916 162.17794837 -56.08129883 170.74584961 C-56.09723424 176.00182638 -56.12751078 181.25757274 -56.16606331 186.51342964 C-56.17765513 188.50634873 -56.18364315 190.49930909 -56.18374443 192.49226189 C-56.18469845 206.26524188 -56.26187042 218.3044963 -65.625 229.3125 C-72.70961855 235.90753109 -79.84126774 238.88013219 -89.4375 238.75 C-90.23212646 238.74097656 -91.02675293 238.73195313 -91.84545898 238.72265625 C-101.4545185 238.43983467 -108.55864006 235.61651258 -115.44630432 228.74650574 C-125.49272669 217.52279518 -124.46481236 205.14597302 -124.31640625 190.91796875 C-124.31282218 188.63935074 -124.3114732 186.36072824 -124.3122406 184.08210754 C-124.30756608 179.32032257 -124.28286047 174.55922057 -124.24243164 169.79760742 C-124.19155206 163.73237544 -124.17998767 157.66789369 -124.18226719 151.60247326 C-124.18144619 146.90001938 -124.16490743 142.19772535 -124.14326286 137.49532509 C-124.13379974 135.26091022 -124.12782365 133.02647747 -124.12558174 130.79204369 C-124.09995973 118.60190437 -123.72366044 107.15000171 -120.625 95.3125 C-120.39927307 94.44284607 -120.17354614 93.57319214 -119.940979 92.67718506 C-111.25438498 60.68182735 -89.03767201 33.02545937 -60.625 16.3125 C-48.81000659 9.77169093 -36.76657755 5.31495769 -23.625 2.3125 C-22.64015625 2.06757813 -21.6553125 1.82265625 -20.640625 1.5703125 C-13.82486023 0.13230433 -6.94013381 0.08189435 0 0 Z " fill="#18C5E2" transform="translate(641.625,175.6875)"/>
<path d="M0 0 C3.12740787 2.0612461 4.33498308 3.35356975 5.75 6.8125 C5.9375 10.625 5.9375 10.625 5.75 13.8125 C6.6575 13.874375 7.565 13.93625 8.5 14 C12.54813566 15.01203392 13.6184706 16.28727831 15.75 19.8125 C15.75 21.1325 15.75 22.4525 15.75 23.8125 C20.99199327 24.99774617 20.99199327 24.99774617 26.125 23.8125 C28.87358135 22.76542139 30.83867007 22.64613829 33.75 22.8125 C34.89999999 26.22697097 34.58274202 28.44048733 33.68603516 31.90063477 C33.42891754 32.91170792 33.17179993 33.92278107 32.90689087 34.9644928 C32.62050751 36.04999924 32.33412415 37.13550568 32.0390625 38.25390625 C31.60767471 39.93274147 31.60767471 39.93274147 31.16757202 41.64549255 C30.24556483 45.22434979 29.31032197 48.79960211 28.375 52.375 C27.75176018 54.78819364 27.12935415 57.20160279 26.5078125 59.61523438 C25.36774676 64.029376 24.2255347 68.44291998 23.07275391 72.85375977 C22.72514511 74.18468407 22.72514511 74.18468407 22.37051392 75.54249573 C21.88591191 77.31529823 21.33117707 79.0689688 20.75 80.8125 C21.4925 80.73 22.235 80.6475 23 80.5625 C25.75 80.8125 25.75 80.8125 28.0625 82.1875 C30.64505264 86.20480411 30.06936644 90.16394409 29.75 94.8125 C31.235 95.3075 31.235 95.3075 32.75 95.8125 C35.02976338 99.05216376 35.22496359 101.93363065 34.75 105.8125 C32.95006226 108.51240662 31.666227 110.3543865 28.75 111.8125 C26.87620395 111.88283769 24.99998898 111.8968022 23.125 111.875 C21.62066406 111.86146484 21.62066406 111.86146484 20.0859375 111.84765625 C19.31507813 111.83605469 18.54421875 111.82445312 17.75 111.8125 C17.79789169 112.49915741 17.84578339 113.18581482 17.89512634 113.89328003 C18.35227341 120.45098754 18.80818252 127.00877991 19.26279354 133.56666374 C19.49640179 136.93592741 19.73058036 140.30514907 19.96557617 143.67431641 C20.9911403 158.38227345 22.00188386 173.08747618 22.75 187.8125 C23.9565625 187.7815625 23.9565625 187.7815625 25.1875 187.75 C27.75 187.8125 27.75 187.8125 28.75 188.8125 C29.16307548 190.97594566 29.55512959 193.14341694 29.9375 195.3125 C32.74542542 208.32867763 41.12075521 215.53513652 50.4465332 224.44311523 C52.86083308 226.97950932 52.88598504 228.92910822 52.875 232.3125 C52.87886719 233.50359375 52.87886719 233.50359375 52.8828125 234.71875 C52.75 236.8125 52.75 236.8125 51.75 238.8125 C52.36875 239.080625 52.9875 239.34875 53.625 239.625 C55.75 240.8125 55.75 240.8125 57.75 243.8125 C57.42414737 249.89508248 57.42414737 249.89508248 55.50481319 252.50702 C53.18000572 254.23654293 51.74484229 254.19218804 48.86048889 254.20018005 C47.85244705 254.21008469 46.84440521 254.21998932 45.80581665 254.23019409 C44.70079803 254.22569244 43.59577942 254.2211908 42.45727539 254.21655273 C41.29283401 254.22341599 40.12839264 254.23027924 38.92866516 254.23735046 C35.06820584 254.25569582 31.20814993 254.25176977 27.34765625 254.24609375 C25.34725723 254.24950036 23.34685802 254.25291397 21.34646124 254.25744683 C15.05555509 254.27149976 8.7647847 254.26992467 2.47387695 254.25854492 C-4.01608734 254.24706451 -10.50563836 254.26113588 -16.99554819 254.2879414 C-22.56762921 254.31009426 -28.13958047 254.31673671 -33.71170241 254.31086498 C-37.03967304 254.30749292 -40.36731979 254.31162994 -43.69526482 254.32711601 C-47.40645183 254.34195091 -51.11672301 254.33140281 -54.82788086 254.31420898 C-56.48237244 254.32871094 -56.48237244 254.32871094 -58.17028809 254.34350586 C-59.68658058 254.32875465 -59.68658058 254.32875465 -61.23350525 254.31370544 C-62.5495117 254.31339152 -62.5495117 254.31339152 -63.89210415 254.31307125 C-67.06475144 253.63953174 -68.2652937 252.3296811 -70.25 249.8125 C-70.8125 246.375 -70.8125 246.375 -70.25 242.8125 C-68.9815625 241.6059375 -68.9815625 241.6059375 -67.6875 240.375 C-66.883125 239.529375 -66.07875 238.68375 -65.25 237.8125 C-65.48128975 234.18323871 -65.48128975 234.18323871 -66.1484375 231.97265625 C-66.30623842 228.61635217 -64.97572157 226.64473519 -63.25 223.8125 C-60.98046875 221.5390625 -60.98046875 221.5390625 -58.4375 219.4375 C-48.26494116 210.58278357 -43.35627121 201.08755145 -41.25 187.8125 C-39.27 187.8125 -37.29 187.8125 -35.25 187.8125 C-35.22756226 187.24439102 -35.20512451 186.67628204 -35.18200684 186.09095764 C-34.61030117 171.82385758 -33.86688952 157.57529877 -32.94775391 143.32641602 C-32.74630142 140.19246191 -32.55074444 137.05817256 -32.35546875 133.92382812 C-32.22691121 131.90622775 -32.09801813 129.88864872 -31.96875 127.87109375 C-31.911427 126.94614609 -31.854104 126.02119843 -31.79504395 125.06822205 C-31.50166025 120.59045085 -31.09739222 116.22812266 -30.25 111.8125 C-30.99765625 111.83570313 -31.7453125 111.85890625 -32.515625 111.8828125 C-33.50046875 111.90085937 -34.4853125 111.91890625 -35.5 111.9375 C-36.47453125 111.96070313 -37.4490625 111.98390625 -38.453125 112.0078125 C-41.33170091 111.80679463 -42.86784582 111.40411629 -45.25 109.8125 C-47.70970225 106.12294663 -47.82750613 103.09638877 -47.25 98.8125 C-45.875 96.3125 -45.875 96.3125 -44.25 94.8125 C-43.59 94.8125 -42.93 94.8125 -42.25 94.8125 C-42.745 93.8225 -42.745 93.8225 -43.25 92.8125 C-43.28947017 88.65234374 -43.24333943 84.94285177 -40.4375 81.75 C-38.25 80.8125 -38.25 80.8125 -34.25 80.8125 C-34.41286499 80.1721431 -34.57572998 79.53178619 -34.74353027 78.87202454 C-36.43754373 72.20659276 -38.12326958 65.5391044 -39.80419922 58.87036133 C-40.43260825 56.38186806 -41.06312815 53.89390685 -41.69580078 51.40649414 C-42.60484465 47.83096914 -43.50627906 44.2535992 -44.40625 40.67578125 C-44.69060913 39.56415115 -44.97496826 38.45252106 -45.26794434 37.3072052 C-45.658349 35.74615303 -45.658349 35.74615303 -46.05664062 34.15356445 C-46.28758423 33.2408931 -46.51852783 32.32822174 -46.75646973 31.38789368 C-47.25603184 28.78102399 -47.41282753 26.45969789 -47.25 23.8125 C-46.92 23.4825 -46.59 23.1525 -46.25 22.8125 C-38.95334928 23.41058612 -38.95334928 23.41058612 -36.0625 25.0625 C-34.13680826 26.09870656 -34.13680826 26.09870656 -31.6875 24.875 C-28.58769089 22.2520846 -27.80026567 19.51965703 -26.25 15.8125 C-23.31232446 13.63293428 -22.06436472 13.8125 -18.25 13.8125 C-18.3325 12.595625 -18.415 11.37875 -18.5 10.125 C-18.5 6.83642956 -18.28575516 5.87124062 -16.5 2.9375 C-11.44794644 -1.83388392 -6.62929984 -2.42224417 0 0 Z " fill="#0A1B27" transform="translate(746.25,161.1875)"/>
<path d="M0 0 C2.93572132 2.43450061 3.67088028 5.54426617 4.671875 9.09375 C4.88577881 9.84696533 5.09968262 10.60018066 5.32006836 11.3762207 C9.4754832 27.37448517 7.30907085 43.5739641 -0.546875 58.16015625 C-8.60748674 70.97077134 -19.30949846 79.08372924 -32.578125 85.96875 C-34.71525317 87.10209287 -36.85196912 88.2362134 -38.98828125 89.37109375 C-40.02871582 89.92007324 -41.06915039 90.46905273 -42.14111328 91.03466797 C-46.12736421 93.15072769 -50.07572281 95.33040231 -54.015625 97.53125 C-54.70462891 97.91442383 -55.39363281 98.29759766 -56.10351562 98.69238281 C-60.63795415 101.21812662 -65.15815287 103.76853919 -69.67578125 106.32421875 C-70.81732666 106.96818604 -71.95887207 107.61215332 -73.13500977 108.27563477 C-75.40192077 109.55496148 -77.66679175 110.83791087 -79.92944336 112.12475586 C-80.9581958 112.70491455 -81.98694824 113.28507324 -83.046875 113.8828125 C-83.96919922 114.40568848 -84.89152344 114.92856445 -85.84179688 115.46728516 C-88.078125 116.59375 -88.078125 116.59375 -90.078125 116.59375 C-90.078125 117.25375 -90.078125 117.91375 -90.078125 118.59375 C-89.31371094 118.80386719 -88.54929688 119.01398438 -87.76171875 119.23046875 C-82.61187959 121.13640074 -77.94569008 123.76334864 -73.140625 126.40625 C-72.08665527 126.98157471 -71.03268555 127.55689941 -69.94677734 128.1496582 C-61.6992287 132.66646537 -53.49466933 137.25924418 -45.32910156 141.92260742 C-40.93725666 144.42935955 -36.53861932 146.89992133 -32.05859375 149.24609375 C-19.53631295 155.84171052 -8.85826563 163.42283693 -1.078125 175.59375 C-0.57667969 176.35171875 -0.07523437 177.1096875 0.44140625 177.890625 C2.15609536 181.021403 3.0915461 184.03107042 4.046875 187.46875 C4.37945312 188.64179688 4.71203125 189.81484375 5.0546875 191.0234375 C8.84068295 206.61082416 6.78609772 220.87625899 0.921875 235.59375 C-2.91126004 234.99944887 -5.79203647 233.86984734 -9.18359375 232.00390625 C-10.64381958 231.20666138 -10.64381958 231.20666138 -12.13354492 230.39331055 C-13.16713135 229.82008057 -14.20071777 229.24685059 -15.265625 228.65625 C-16.88464722 227.76836792 -16.88464722 227.76836792 -18.53637695 226.86254883 C-21.72101452 225.11351366 -24.90042256 223.35534741 -28.078125 221.59375 C-28.87476563 221.15321289 -29.67140625 220.71267578 -30.4921875 220.25878906 C-34.01972272 218.30742072 -37.54256929 216.34786022 -41.0625 214.3828125 C-45.63875512 211.83176937 -50.23006519 209.30837861 -54.82260132 206.78681946 C-59.84791186 204.02650827 -64.864433 201.25056769 -69.87734985 198.46781921 C-73.48553587 196.46720231 -77.10841343 194.49663194 -80.7421875 192.54296875 C-99.18388609 182.48045616 -110.90098214 169.97093841 -117.078125 149.59375 C-117.90837904 146.0453311 -118.20860357 142.76158739 -118.22338867 139.12011719 C-118.22976852 138.04840271 -118.23614838 136.97668823 -118.24272156 135.87249756 C-118.24383438 134.72347961 -118.2449472 133.57446167 -118.24609375 132.390625 C-118.24942215 131.19826233 -118.25275055 130.00589966 -118.25617981 128.77740479 C-118.2612388 126.25574122 -118.26358845 123.73407098 -118.26342773 121.21240234 C-118.26560898 117.37195673 -118.28376155 113.53180087 -118.30273438 109.69140625 C-118.30566962 107.23698014 -118.30765354 104.78255268 -118.30859375 102.328125 C-118.31577927 101.18720398 -118.32296478 100.04628296 -118.33036804 98.87078857 C-118.28577323 83.15385356 -112.93126981 69.17933902 -102.078125 57.59375 C-94.89138772 51.04656778 -87.25370882 46.09389238 -78.703125 41.53125 C-77.52589041 40.89171947 -76.34931162 40.2509805 -75.17333984 39.60913086 C-72.71734664 38.27025755 -70.25834094 36.93718204 -67.796875 35.60839844 C-62.34378059 32.66034602 -56.92394469 29.65216958 -51.50039673 26.65023804 C-48.50082387 24.99131274 -45.49834361 23.33766777 -42.49609375 21.68359375 C-37.30922667 18.8251755 -32.12473253 15.96248968 -26.94140625 13.09765625 C-24.94483672 11.99455927 -22.94822648 10.89153601 -20.95159912 9.7885437 C-19.67219263 9.08156059 -18.39293372 8.37431033 -17.11383057 7.66677856 C-15.34061092 6.68598128 -13.56680262 5.70624848 -11.79296875 4.7265625 C-10.27884399 3.88955811 -10.27884399 3.88955811 -8.73413086 3.03564453 C-7.41940796 2.32190674 -7.41940796 2.32190674 -6.078125 1.59375 C-5.34311768 1.19075684 -4.60811035 0.78776367 -3.85083008 0.37255859 C-2.078125 -0.40625 -2.078125 -0.40625 0 0 Z " fill="#0B121E" transform="translate(286.078125,178.40625)"/>
<path d="M0 0 C16.10794562 -0.11342792 31.47534158 6.62802679 43.03930664 17.80200195 C52.02498936 26.93123092 55.75881702 35.86565379 59 48 C59.18201682 48.63929066 59.36403364 49.27858131 59.55156612 49.93724442 C60.04336024 52.19945323 60.12297115 54.22858394 60.12025452 56.54315186 C60.12162918 57.448965 60.12300385 58.35477814 60.12442017 59.28804016 C60.11902725 60.76726204 60.11902725 60.76726204 60.11352539 62.27636719 C60.11367142 63.32058334 60.11381744 64.3647995 60.1139679 65.44065857 C60.11327113 68.89275183 60.10548973 72.34479116 60.09765625 75.796875 C60.09579123 78.19012421 60.09436772 80.58337381 60.09336853 82.97662354 C60.08954996 89.27635756 60.07972527 95.57606854 60.06866455 101.87579346 C60.05843627 108.30391122 60.05386787 114.7320327 60.04882812 121.16015625 C60.03810244 133.77344733 60.02122606 146.38672244 60 159 C57.91175828 159.02390242 55.82343775 159.04098903 53.73510742 159.05517578 C52.57218674 159.06541779 51.40926605 159.07565979 50.21110535 159.08621216 C36.59938915 158.7207631 23.05924139 148.43605559 14 139 C9.09916453 132.98387593 5.97737393 126.11980723 3 119 C2.64421875 118.21109375 2.2884375 117.4221875 1.921875 116.609375 C-0.39146881 110.06143573 -0.13880103 103.24008243 -0.11352539 96.38305664 C-0.11374443 94.81607529 -0.11374443 94.81607529 -0.1139679 93.21743774 C-0.11327401 89.78165576 -0.10550616 86.34592871 -0.09765625 82.91015625 C-0.09579021 80.52119476 -0.09436718 78.13223288 -0.09336853 75.74327087 C-0.089558 69.46824072 -0.07974023 63.19323387 -0.06866455 56.91821289 C-0.05841893 50.50993159 -0.05386416 44.10164651 -0.04882812 37.69335938 C-0.03811663 25.12889633 -0.02125117 12.56444941 0 0 Z " fill="#0B121E" transform="translate(95,184)"/>
<path d="M0 0 C21.12 0 42.24 0 64 0 C64.99 4.95 65.98 9.9 67 15 C69.57732834 20.08499915 72.46058648 23.51351062 76.50390625 27.4453125 C77.13707764 28.06204834 77.77024902 28.67878418 78.42260742 29.31420898 C79.70610588 30.54570626 81.00683113 31.75954088 82.32543945 32.95336914 C85.23279008 35.68784396 86.81967995 37.21182687 87.7265625 41.17578125 C86.72198567 45.08066859 85.44679073 45.91727746 82 48 C78.71035966 48.58514135 75.46685304 48.54662279 72.13256836 48.51757812 C70.64881462 48.52809204 70.64881462 48.52809204 69.13508606 48.53881836 C65.86971865 48.55640488 62.60521976 48.54477372 59.33984375 48.53125 C57.06970554 48.5339445 54.79956846 48.53782656 52.5294342 48.54284668 C47.77398683 48.54874246 43.01884014 48.54017509 38.26342773 48.52148438 C32.16434551 48.49868216 26.06596684 48.51182598 19.96691036 48.53577423 C15.28034652 48.55021875 10.59394989 48.54563255 5.90738106 48.53526306 C3.65827921 48.53259274 1.40916223 48.53587621 -0.83992195 48.54518127 C-3.9810123 48.55532579 -7.12095794 48.53987486 -10.26196289 48.51757812 C-11.65927139 48.52972351 -11.65927139 48.52972351 -13.08480835 48.54211426 C-19.36041384 48.45947205 -19.36041384 48.45947205 -22.57347107 46.15124512 C-24.56165275 43.15301211 -24.64824 41.52930668 -24 38 C-22.39507982 36.27379411 -20.71780177 34.61391221 -19 33 C-8.42135244 22.86763913 -2.09498034 14.66486239 0 0 Z " fill="#18C6E3" transform="translate(708,352)"/>
<path d="M0 0 C12.87 0 25.74 0 39 0 C40.40853932 14.74679426 41.55443242 29.47785623 42.43261719 44.26513672 C42.62817065 47.55331354 42.82937217 50.8411122 43.03125 54.12890625 C43.15917813 56.24216791 43.28679438 58.35544849 43.4140625 60.46875 C43.50308334 61.92649841 43.50308334 61.92649841 43.59390259 63.41369629 C43.64750946 64.32325073 43.70111633 65.23280518 43.75634766 66.16992188 C43.82724106 67.35612122 43.82724106 67.35612122 43.89956665 68.56628418 C44.01548898 71.37533122 44 74.18856206 44 77 C28.16 77 12.32 77 -4 77 C-4.17703916 61.86315163 -3.92584584 46.8596342 -3.125 31.75 C-3.08570374 30.97089264 -3.04640747 30.19178528 -3.00592041 29.3890686 C-2.88906771 27.10785764 -2.76257427 24.82738485 -2.6328125 22.546875 C-2.55949707 21.23557617 -2.48618164 19.92427734 -2.41064453 18.57324219 C-1.85231311 12.35524924 -0.8828949 6.1802643 0 0 Z " fill="#18C8E5" transform="translate(720,272)"/>
<path d="M0 0 C2.4932534 0.99730136 3.77467439 1.65074531 5.25 3.9375 C6 6 6 6 6 9 C6.99 9 7.98 9 9 9 C9.0825 8.071875 9.165 7.14375 9.25 6.1875 C10 3 10 3 11.6875 1.125 C14.70753221 -0.34420486 16.67631657 -0.41546043 20 0 C22.3125 1.125 22.3125 1.125 24 3 C24.75 6.1875 24.75 6.1875 25 9 C25.99 9 26.98 9 28 9 C28.0825 8.2575 28.165 7.515 28.25 6.75 C29.17530012 3.3572329 30.16508061 2.06872496 33 0 C36.86220672 -0.65739689 38.47360782 -0.32753291 41.8125 1.75 C44.05607625 4.05767842 44.37662109 4.98700193 45 8 C45.99 8.33 46.98 8.66 48 9 C47.9175 8.2575 47.835 7.515 47.75 6.75 C48 4 48 4 49.5625 1.6875 C52.92771179 -0.64226201 54.98972923 -0.57289582 59 0 C62.25787274 2.40053781 63.08128833 4.19390881 64 8 C64.99 8.33 65.98 8.66 67 9 C66.938125 8.236875 66.87625 7.47375 66.8125 6.6875 C67 4 67 4 68.375 2.1875 C70 1 70 1 72 1 C70.67147929 8.81012063 69.0072627 16.49336991 67.125 24.1875 C66.86178955 25.27160156 66.5985791 26.35570312 66.32739258 27.47265625 C65.80046231 29.63890727 65.27193795 31.80477126 64.74169922 33.97021484 C64.07491146 36.69399236 63.41372316 39.41905912 62.75390625 42.14453125 C62.39894742 43.59647892 62.04352005 45.04831218 61.6875 46.5 C61.38199219 47.7478125 61.07648437 48.995625 60.76171875 50.28125 C60 53 60 53 59 54 C57.55710213 54.09295815 56.10970215 54.11746513 54.66381836 54.11352539 C53.28249977 54.11341209 53.28249977 54.11341209 51.87327576 54.11329651 C50.87224319 54.10813522 49.87121063 54.10297394 48.83984375 54.09765625 C47.82024063 54.0962413 46.80063751 54.09482635 45.75013733 54.09336853 C42.47922893 54.08775097 39.20838787 54.0751955 35.9375 54.0625 C33.72591244 54.05748726 31.51432382 54.05292396 29.30273438 54.04882812 C23.86846643 54.03777584 18.43423803 54.02102063 13 54 C11.63029708 48.66565067 10.26109651 43.33117273 8.89233398 37.99658203 C8.42794924 36.18697746 7.96343421 34.37740631 7.4987793 32.56787109 C6.18711418 27.4595779 4.87853375 22.35051319 3.57366943 17.24047852 C3.05465952 15.21347396 2.53078893 13.18771549 2.00634766 11.16210938 C1.59521729 9.55819336 1.59521729 9.55819336 1.17578125 7.921875 C0.94415283 7.0256543 0.71252441 6.12943359 0.47387695 5.20605469 C0 3 0 3 0 0 Z " fill="#18C5E2" transform="translate(703,188)"/>
<path d="M0 0 C0.96748672 -0.00563965 1.93497345 -0.0112793 2.93177795 -0.01708984 C4.52928139 -0.01101715 4.52928139 -0.01101715 6.15905762 -0.00482178 C7.2777977 -0.00832642 8.39653778 -0.01183105 9.54917908 -0.01544189 C13.26229991 -0.02427385 16.97523158 -0.01840482 20.68835449 -0.01165771 C23.25903358 -0.01300394 25.82971241 -0.01494412 28.40039062 -0.01745605 C33.79409435 -0.02040931 39.18772644 -0.0162928 44.5814209 -0.0067749 C50.82192448 0.00410997 57.06229738 0.00058449 63.30279779 -0.01042771 C69.29998237 -0.02058797 75.29710288 -0.0195244 81.29429626 -0.01366425 C83.84927895 -0.01232624 86.40426495 -0.01398071 88.95924377 -0.01862335 C92.52463731 -0.02367958 96.08977684 -0.0159909 99.65515137 -0.00482178 C100.72015366 -0.00887024 101.78515594 -0.0129187 102.88243103 -0.01708984 C104.33366112 -0.00863037 104.33366112 -0.00863037 105.81420898 0 C107.07962147 0.00113108 107.07962147 0.00113108 108.37059784 0.002285 C110.40710449 0.25396729 110.40710449 0.25396729 112.40710449 2.25396729 C112.53210449 4.87896729 112.53210449 4.87896729 112.40710449 7.25396729 C109.9893214 8.46285883 108.47080505 8.37975595 105.76951599 8.38095093 C104.30349693 8.38518066 104.30349693 8.38518066 102.80786133 8.38949585 C101.73193726 8.38747162 100.65601318 8.38544739 99.54748535 8.38336182 C98.41738541 8.38511414 97.28728546 8.38686646 96.12294006 8.38867188 C92.37259402 8.39308752 88.6222948 8.39015358 84.87194824 8.38677979 C82.27645356 8.38745286 79.68095894 8.38842291 77.08546448 8.38967896 C71.64050642 8.3911555 66.19556611 8.38909734 60.75061035 8.38433838 C54.44763636 8.37889326 48.14469469 8.38066072 41.84172148 8.38616478 C35.78688224 8.39124132 29.73205889 8.3907146 23.67721748 8.38778305 C21.09628864 8.38711358 18.51535897 8.3879429 15.93443108 8.3902626 C12.33537448 8.39278738 8.73638097 8.38895113 5.1373291 8.38336182 C4.0593808 8.38538605 2.9814325 8.38741028 1.87081909 8.38949585 C0.89629288 8.38667603 -0.07823334 8.3838562 -1.08229065 8.38095093 C-2.36014734 8.38038539 -2.36014734 8.38038539 -3.66381931 8.37980843 C-5.59289551 8.25396729 -5.59289551 8.25396729 -6.59289551 7.25396729 C-6.78039551 4.81646729 -6.78039551 4.81646729 -6.59289551 2.25396729 C-4.11597443 -0.2229538 -3.41073117 0.00304865 0 0 Z " fill="#17B9D5" transform="translate(686.5928955078125,402.74603271484375)"/>
<path d="M0 0 C0.64910843 -0.00511093 1.29821686 -0.01022186 1.96699524 -0.01548767 C4.11155427 -0.02938224 6.25579195 -0.02842729 8.40039062 -0.02612305 C9.89107381 -0.03000965 11.38175589 -0.03434425 12.87243652 -0.03910828 C15.99621166 -0.04656987 19.11987377 -0.04627939 22.24365234 -0.04101562 C26.24879338 -0.03521653 30.25347264 -0.05216246 34.25853729 -0.0753603 C37.33659576 -0.09008288 40.41454257 -0.09097146 43.49263 -0.08785057 C44.96943579 -0.08836438 46.44624773 -0.09361338 47.92301941 -0.10366249 C49.98674669 -0.11598363 52.04956874 -0.10926282 54.11328125 -0.09765625 C55.2878186 -0.09828568 56.46235596 -0.0989151 57.67248535 -0.0995636 C60.55664062 0.2746582 60.55664062 0.2746582 62.43981934 1.63777161 C64.01699199 3.94937939 63.90712745 5.54086096 63.55664062 8.2746582 C60.74516941 11.08612942 58.96556893 10.52829098 55.02734375 10.53344727 C54.35726791 10.5369519 53.68719208 10.54045654 52.99681091 10.54406738 C50.7770661 10.55288552 48.5576388 10.54703544 46.33789062 10.5402832 C44.79854267 10.54162983 43.25919513 10.54357035 41.71984863 10.54608154 C38.49173946 10.54903291 35.26374087 10.54473482 32.03564453 10.53540039 C27.89258268 10.52400578 23.74977994 10.53056519 19.6067276 10.54254532 C16.42749063 10.54976362 13.24831534 10.54747615 10.06907654 10.54228973 C8.54121368 10.54095315 7.01334527 10.54260126 5.48548889 10.54724884 C3.35215363 10.55231367 1.21924118 10.5446049 -0.9140625 10.53344727 C-2.12936646 10.53185608 -3.34467041 10.53026489 -4.59680176 10.52862549 C-7.44335938 10.2746582 -7.44335938 10.2746582 -9.44335938 8.2746582 C-9.75585938 5.2746582 -9.75585938 5.2746582 -9.44335938 2.2746582 C-5.8595773 -0.11452985 -4.25822798 0.01670387 0 0 Z " fill="#18C0DC" transform="translate(712.443359375,257.725341796875)"/>
<path d="M0 0 C1.75697205 -0.01418472 1.75697205 -0.01418472 3.54943848 -0.02865601 C5.44792542 -0.01954697 5.44792542 -0.01954697 7.38476562 -0.01025391 C8.68297241 -0.01312408 9.9811792 -0.01599426 11.31872559 -0.01895142 C14.06594553 -0.02337316 16.8128727 -0.016949 19.56005859 -0.00292969 C23.08098403 0.01416268 26.60122345 0.00432061 30.12212372 -0.01364708 C33.48055934 -0.02709598 36.83881051 -0.01767904 40.19726562 -0.01025391 C41.46292358 -0.0163266 42.72858154 -0.02239929 44.03259277 -0.02865601 C45.20390747 -0.01919952 46.37522217 -0.00974304 47.58203125 0 C49.13065857 0.00358017 49.13065857 0.00358017 50.71057129 0.00723267 C53.29101562 0.38818359 53.29101562 0.38818359 55.1595459 1.71713257 C56.29101562 3.38818359 56.29101562 3.38818359 56.10351562 6.51318359 C55.83539062 7.46193359 55.56726563 8.41068359 55.29101562 9.38818359 C52.62246674 10.72245804 50.5760534 10.52265509 47.58789062 10.53344727 C45.79593262 10.54301704 45.79593262 10.54301704 43.96777344 10.55278015 C42.02402832 10.55444939 42.02402832 10.55444939 40.04101562 10.55615234 C38.70345015 10.5593644 37.36588504 10.56272843 36.02832031 10.5662384 C33.22395004 10.57222941 30.41961059 10.57407828 27.61523438 10.57348633 C24.01698832 10.57338459 20.41893909 10.58704868 16.82073975 10.60425854 C14.0584217 10.61536054 11.29615155 10.61740611 8.53381348 10.6168766 C6.56061342 10.61863488 4.58742831 10.62948519 2.61425781 10.64042664 C1.41961914 10.63735001 0.22498047 10.63427338 -1.00585938 10.63110352 C-2.0612793 10.63252853 -3.11669922 10.63395355 -4.20410156 10.63542175 C-6.70898438 10.38818359 -6.70898438 10.38818359 -8.70898438 8.38818359 C-9.0627831 5.62855355 -9.18440597 4.05708056 -7.54626465 1.75228882 C-4.97899885 -0.15380071 -3.18015633 0.00735199 0 0 Z " fill="#18BFDB" transform="translate(715.708984375,244.61181640625)"/>
<path d="M0 0 C0.72614502 0.00008057 1.45229004 0.00016113 2.20043945 0.00024414 C4.4150722 -0.00194063 6.62920561 -0.02008844 8.84375 -0.0390625 C10.245441 -0.04199669 11.64713437 -0.04398131 13.04882812 -0.04492188 C14.33072021 -0.04903076 15.6126123 -0.05313965 16.93334961 -0.05737305 C19.99023438 0.18554688 19.99023438 0.18554688 21.99023438 2.18554688 C21.99023438 3.50554687 21.99023438 4.82554687 21.99023438 6.18554688 C18.26058298 8.21990218 16.32118396 9.18554688 11.99023438 9.18554688 C11.00023437 8.52554688 10.01023437 7.86554688 8.99023438 7.18554688 C4.88176771 6.60294663 1.16734517 6.3354113 -2.25976562 8.81054688 C-2.83726562 9.26429688 -3.41476562 9.71804687 -4.00976562 10.18554688 C-6.50976562 9.49804688 -6.50976562 9.49804688 -9.00976562 8.18554688 C-9.77289062 7.81429687 -10.53601563 7.44304687 -11.32226562 7.06054688 C-12.15757812 6.62742188 -12.15757812 6.62742188 -13.00976562 6.18554688 C-11.56010395 -1.89113963 -7.3584008 0.02582486 0 0 Z " fill="#18BFDB" transform="translate(735.009765625,178.814453125)"/>
<path d="M0 0 C0.33 0.99 0.66 1.98 1 3 C2.81296615 3.62092718 2.81296615 3.62092718 5 4 C5.825 4.4125 6.65 4.825 7.5 5.25 C8.325 5.4975 9.15 5.745 10 6 C10.86625 5.319375 10.86625 5.319375 11.75 4.625 C15.23599391 2.10733773 18.83377622 2.40373311 23 3 C25.5625 4.5 25.5625 4.5 27 6 C27.556875 5.690625 28.11375 5.38125 28.6875 5.0625 C31.12540433 3.94238179 33.36224186 3.43962636 36 3 C36.33 2.01 36.66 1.02 37 0 C37 1.32 37 2.64 37 4 C37.66 4.66 38.32 5.32 39 6 C38.05125 6.28875 37.1025 6.5775 36.125 6.875 C32.94788422 7.76825109 32.94788422 7.76825109 31 10 C30.35232207 12.57061311 30.35232207 12.57061311 30 15 C28.125 14.8125 28.125 14.8125 26 14 C25.28272222 12.35448038 24.61674772 10.68577711 24 9 C20.53076119 6.68717413 19.07794425 6.57521414 15 7 C12.04251064 9.00686778 11.16000006 11.69846138 10 15 C9.01 15 8.02 15 7 15 C6.62875 13.88625 6.2575 12.7725 5.875 11.625 C4.5205979 8.38621238 4.23787197 8.10727559 0.8125 6.5625 C-0.5796875 6.2840625 -0.5796875 6.2840625 -2 6 C-1.34 5.34 -0.68 4.68 0 4 C0 2.68 0 1.36 0 0 Z " fill="#0C2836" transform="translate(721,182)"/>
<path d="M0 0 C2.375 0.9375 2.375 0.9375 4 3 C4.63478115 6.03403871 4.81952189 8.88675268 5 12 C-0.61 12 -6.22 12 -12 12 C-12 5 -12 5 -9.9375 2.0625 C-6.27096589 -0.51187502 -4.39593437 -0.63940864 0 0 Z " fill="#17B7D3" transform="translate(743,164)"/>
<path d="M0 0 C0.66 0 1.32 0 2 0 C2.67286212 2.41509441 3.33846012 4.83180356 4 7.25 C4.19078125 7.93191406 4.3815625 8.61382812 4.578125 9.31640625 C5.49957044 12.70600912 6 15.45778976 6 19 C5.01 18.67 4.02 18.34 3 18 C2.0854194 15.5116281 1.37807525 13.18488245 0.75 10.625 C0.564375 9.93921875 0.37875 9.2534375 0.1875 8.546875 C-0.67600656 5.18443279 -1.11865932 3.35597796 0 0 Z " fill="#0B1C29" transform="translate(716,209)"/>
<path d="M0 0 C0.33 0.99 0.66 1.98 1 3 C2.81296615 3.62092718 2.81296615 3.62092718 5 4 C9.84507042 5.69014085 9.84507042 5.69014085 11 8 C9.68 8 8.36 8 7 8 C7.33 10.31 7.66 12.62 8 15 C6 12 6 12 5.25 9.9375 C3.41862885 7.09887472 1.16974031 6.82688878 -2 6 C-1.34 5.34 -0.68 4.68 0 4 C0 2.68 0 1.36 0 0 Z " fill="#0D2C3A" transform="translate(721,182)"/>
<path d="M0 0 C0.66 0.33 1.32 0.66 2 1 C-0.11905463 3.17277714 -2.24472878 5.33826908 -4.375 7.5 C-4.97828125 8.12003906 -5.5815625 8.74007812 -6.203125 9.37890625 C-6.78320312 9.96542969 -7.36328125 10.55195313 -7.9609375 11.15625 C-8.49509277 11.70087891 -9.02924805 12.24550781 -9.57958984 12.80664062 C-11 14 -11 14 -13 14 C-11.43416404 9.96278439 -8.55826135 7.52929418 -5.375 4.75 C-4.859375 4.29109375 -4.34375 3.8321875 -3.8125 3.359375 C-2.5465398 2.23407704 -1.27392058 1.11627823 0 0 Z " fill="#13A1B9" transform="translate(394,202)"/>
<path d="M0 0 C0.66 0.33 1.32 0.66 2 1 C0.21427748 2.83947337 -1.57802449 4.67157741 -3.375 6.5 C-3.88289062 7.02464844 -4.39078125 7.54929688 -4.9140625 8.08984375 C-6.23832604 9.43153181 -7.61605865 10.71995815 -9 12 C-9.66 12 -10.32 12 -11 12 C-9.49650623 8.33213607 -7.36271208 6.31089607 -4.375 3.75 C-3.14910156 2.69039062 -3.14910156 2.69039062 -1.8984375 1.609375 C-1.27195313 1.07828125 -0.64546875 0.5471875 0 0 Z " fill="#0E3A4A" transform="translate(192,229)"/>
<path d="M0 0 C0.66 0 1.32 0 2 0 C0.55746343 3.36591866 -1.33264727 5.51047079 -4 8 C-4.66 7.67 -5.32 7.34 -6 7 C-5.04882866 5.8274869 -4.08882991 4.66212985 -3.125 3.5 C-2.59132813 2.8503125 -2.05765625 2.200625 -1.5078125 1.53125 C-0.76144531 0.77328125 -0.76144531 0.77328125 0 0 Z " fill="#13A1B8" transform="translate(83,167)"/>
<path d="M0 0 C0.66 0 1.32 0 2 0 C1.979375 1.010625 1.95875 2.02125 1.9375 3.0625 C1.99687734 6.80327257 2.39795085 10.31244898 3 14 C0.49360113 11.49360113 0.4120229 9.89489895 -0.1875 6.4375 C-0.36667969 5.44621094 -0.54585937 4.45492187 -0.73046875 3.43359375 C-0.81941406 2.63050781 -0.90835938 1.82742187 -1 1 C-0.67 0.67 -0.34 0.34 0 0 Z " fill="#0F4758" transform="translate(716,209)"/>
<path d="M0 0 C1.65 0.33 3.3 0.66 5 1 C5 1.66 5 2.32 5 3 C3.68 3 2.36 3 1 3 C1.33 5.31 1.66 7.62 2 10 C0.22293791 7.33440687 -0.87548273 4.9719385 -2 2 C-1.34 2 -0.68 2 0 2 C0 1.34 0 0.68 0 0 Z " fill="#0F4758" transform="translate(727,187)"/>
<path d="M0 0 C0 0.99 0 1.98 0 3 C-0.99 3.66 -1.98 4.32 -3 5 C-3.66 5.99 -4.32 6.98 -5 8 C-5.36625971 3.48279689 -5.36625971 3.48279689 -3.625 1.1875 C-2 0 -2 0 0 0 Z " fill="#16A7C1" transform="translate(775,189)"/>
</svg>
